<mxfile host="app.diagrams.net" modified="2023-07-15T04:38:40.454Z" agent="Mozilla/5.0 (Windows NT 10.0; Win64; x64) AppleWebKit/537.36 (KHTML, like Gecko) Chrome/109.0.0.0 Safari/537.36" etag="6rymmRkWY2eZczV3kVyu" version="21.6.2" type="github">
  <diagram name="第 1 页" id="Y9jgXnM3lNwyWh5a8e2h">
    <mxGraphModel dx="2049" dy="1146" grid="1" gridSize="10" guides="1" tooltips="1" connect="1" arrows="1" fold="1" page="1" pageScale="1" pageWidth="827" pageHeight="1169" math="0" shadow="0">
      <root>
        <mxCell id="0" />
        <mxCell id="1" parent="0" />
        <mxCell id="xid45OQ-tQ_rR6GMD2_A-24" value="" style="rounded=0;whiteSpace=wrap;html=1;dashed=1;dashPattern=8 8;" vertex="1" parent="1">
          <mxGeometry x="210" y="870" width="360" height="140" as="geometry" />
        </mxCell>
        <mxCell id="xid45OQ-tQ_rR6GMD2_A-34" style="edgeStyle=orthogonalEdgeStyle;rounded=0;orthogonalLoop=1;jettySize=auto;html=1;exitX=0.5;exitY=0;exitDx=0;exitDy=0;entryX=0;entryY=0.5;entryDx=0;entryDy=0;" edge="1" parent="1" source="xid45OQ-tQ_rR6GMD2_A-1" target="xid45OQ-tQ_rR6GMD2_A-3">
          <mxGeometry relative="1" as="geometry" />
        </mxCell>
        <mxCell id="xid45OQ-tQ_rR6GMD2_A-1" value="年龄与选择" style="rounded=1;whiteSpace=wrap;html=1;" vertex="1" parent="1">
          <mxGeometry x="250" y="555" width="120" height="60" as="geometry" />
        </mxCell>
        <mxCell id="xid45OQ-tQ_rR6GMD2_A-6" style="edgeStyle=orthogonalEdgeStyle;rounded=0;orthogonalLoop=1;jettySize=auto;html=1;exitX=0.5;exitY=0;exitDx=0;exitDy=0;entryX=0.5;entryY=1;entryDx=0;entryDy=0;" edge="1" parent="1" source="xid45OQ-tQ_rR6GMD2_A-2" target="xid45OQ-tQ_rR6GMD2_A-5">
          <mxGeometry relative="1" as="geometry" />
        </mxCell>
        <mxCell id="xid45OQ-tQ_rR6GMD2_A-8" style="edgeStyle=orthogonalEdgeStyle;rounded=0;orthogonalLoop=1;jettySize=auto;html=1;exitX=0.5;exitY=1;exitDx=0;exitDy=0;" edge="1" parent="1" source="xid45OQ-tQ_rR6GMD2_A-2" target="xid45OQ-tQ_rR6GMD2_A-3">
          <mxGeometry relative="1" as="geometry" />
        </mxCell>
        <mxCell id="xid45OQ-tQ_rR6GMD2_A-2" value="情绪、压力" style="rounded=1;whiteSpace=wrap;html=1;" vertex="1" parent="1">
          <mxGeometry x="430" y="210" width="120" height="60" as="geometry" />
        </mxCell>
        <mxCell id="xid45OQ-tQ_rR6GMD2_A-4" style="edgeStyle=orthogonalEdgeStyle;rounded=0;orthogonalLoop=1;jettySize=auto;html=1;exitX=0.5;exitY=0;exitDx=0;exitDy=0;" edge="1" parent="1" source="xid45OQ-tQ_rR6GMD2_A-3" target="xid45OQ-tQ_rR6GMD2_A-2">
          <mxGeometry relative="1" as="geometry" />
        </mxCell>
        <mxCell id="xid45OQ-tQ_rR6GMD2_A-3" value="心理：急、&lt;br&gt;焦虑" style="ellipse;whiteSpace=wrap;html=1;aspect=fixed;" vertex="1" parent="1">
          <mxGeometry x="450" y="360" width="80" height="80" as="geometry" />
        </mxCell>
        <mxCell id="xid45OQ-tQ_rR6GMD2_A-7" style="edgeStyle=orthogonalEdgeStyle;rounded=0;orthogonalLoop=1;jettySize=auto;html=1;exitX=0.5;exitY=1;exitDx=0;exitDy=0;entryX=0.5;entryY=0;entryDx=0;entryDy=0;" edge="1" parent="1" source="xid45OQ-tQ_rR6GMD2_A-5" target="xid45OQ-tQ_rR6GMD2_A-2">
          <mxGeometry relative="1" as="geometry" />
        </mxCell>
        <mxCell id="xid45OQ-tQ_rR6GMD2_A-35" style="edgeStyle=orthogonalEdgeStyle;rounded=0;orthogonalLoop=1;jettySize=auto;html=1;exitX=0;exitY=0.5;exitDx=0;exitDy=0;entryX=0;entryY=0.5;entryDx=0;entryDy=0;" edge="1" parent="1" source="xid45OQ-tQ_rR6GMD2_A-5" target="xid45OQ-tQ_rR6GMD2_A-14">
          <mxGeometry relative="1" as="geometry">
            <Array as="points">
              <mxPoint x="90" y="100" />
              <mxPoint x="90" y="740" />
            </Array>
          </mxGeometry>
        </mxCell>
        <mxCell id="xid45OQ-tQ_rR6GMD2_A-5" value="身体" style="rounded=1;whiteSpace=wrap;html=1;" vertex="1" parent="1">
          <mxGeometry x="430" y="70" width="120" height="60" as="geometry" />
        </mxCell>
        <mxCell id="xid45OQ-tQ_rR6GMD2_A-13" style="edgeStyle=orthogonalEdgeStyle;rounded=0;orthogonalLoop=1;jettySize=auto;html=1;exitX=0.5;exitY=0;exitDx=0;exitDy=0;" edge="1" parent="1" source="xid45OQ-tQ_rR6GMD2_A-12" target="xid45OQ-tQ_rR6GMD2_A-3">
          <mxGeometry relative="1" as="geometry" />
        </mxCell>
        <mxCell id="xid45OQ-tQ_rR6GMD2_A-12" value="家庭命运、荣誉感" style="rounded=1;whiteSpace=wrap;html=1;" vertex="1" parent="1">
          <mxGeometry x="630" y="555" width="120" height="60" as="geometry" />
        </mxCell>
        <mxCell id="xid45OQ-tQ_rR6GMD2_A-15" style="edgeStyle=orthogonalEdgeStyle;rounded=0;orthogonalLoop=1;jettySize=auto;html=1;exitX=0.5;exitY=0;exitDx=0;exitDy=0;entryX=0.5;entryY=1;entryDx=0;entryDy=0;" edge="1" parent="1" source="xid45OQ-tQ_rR6GMD2_A-14" target="xid45OQ-tQ_rR6GMD2_A-1">
          <mxGeometry relative="1" as="geometry" />
        </mxCell>
        <mxCell id="xid45OQ-tQ_rR6GMD2_A-14" value="婚姻" style="rounded=1;whiteSpace=wrap;html=1;" vertex="1" parent="1">
          <mxGeometry x="170" y="710" width="120" height="60" as="geometry" />
        </mxCell>
        <mxCell id="xid45OQ-tQ_rR6GMD2_A-17" style="edgeStyle=orthogonalEdgeStyle;rounded=0;orthogonalLoop=1;jettySize=auto;html=1;exitX=0.5;exitY=0;exitDx=0;exitDy=0;entryX=0.5;entryY=1;entryDx=0;entryDy=0;" edge="1" parent="1" source="xid45OQ-tQ_rR6GMD2_A-16" target="xid45OQ-tQ_rR6GMD2_A-1">
          <mxGeometry relative="1" as="geometry" />
        </mxCell>
        <mxCell id="xid45OQ-tQ_rR6GMD2_A-22" style="edgeStyle=orthogonalEdgeStyle;rounded=0;orthogonalLoop=1;jettySize=auto;html=1;exitX=0.5;exitY=1;exitDx=0;exitDy=0;" edge="1" parent="1" source="xid45OQ-tQ_rR6GMD2_A-16" target="xid45OQ-tQ_rR6GMD2_A-20">
          <mxGeometry relative="1" as="geometry" />
        </mxCell>
        <mxCell id="xid45OQ-tQ_rR6GMD2_A-23" style="edgeStyle=orthogonalEdgeStyle;rounded=0;orthogonalLoop=1;jettySize=auto;html=1;exitX=0.5;exitY=1;exitDx=0;exitDy=0;entryX=0.5;entryY=0;entryDx=0;entryDy=0;" edge="1" parent="1" source="xid45OQ-tQ_rR6GMD2_A-16" target="xid45OQ-tQ_rR6GMD2_A-21">
          <mxGeometry relative="1" as="geometry" />
        </mxCell>
        <mxCell id="xid45OQ-tQ_rR6GMD2_A-26" style="edgeStyle=orthogonalEdgeStyle;rounded=0;orthogonalLoop=1;jettySize=auto;html=1;exitX=1;exitY=0.5;exitDx=0;exitDy=0;entryX=0;entryY=0.5;entryDx=0;entryDy=0;" edge="1" parent="1" source="xid45OQ-tQ_rR6GMD2_A-27" target="xid45OQ-tQ_rR6GMD2_A-12">
          <mxGeometry relative="1" as="geometry" />
        </mxCell>
        <mxCell id="xid45OQ-tQ_rR6GMD2_A-16" value="事业" style="rounded=1;whiteSpace=wrap;html=1;" vertex="1" parent="1">
          <mxGeometry x="330" y="710" width="120" height="60" as="geometry" />
        </mxCell>
        <mxCell id="xid45OQ-tQ_rR6GMD2_A-19" style="edgeStyle=orthogonalEdgeStyle;rounded=0;orthogonalLoop=1;jettySize=auto;html=1;exitX=0.5;exitY=0;exitDx=0;exitDy=0;" edge="1" parent="1" source="xid45OQ-tQ_rR6GMD2_A-18" target="xid45OQ-tQ_rR6GMD2_A-12">
          <mxGeometry relative="1" as="geometry" />
        </mxCell>
        <mxCell id="xid45OQ-tQ_rR6GMD2_A-18" value="父母拖境" style="rounded=1;whiteSpace=wrap;html=1;" vertex="1" parent="1">
          <mxGeometry x="630" y="710" width="120" height="60" as="geometry" />
        </mxCell>
        <mxCell id="xid45OQ-tQ_rR6GMD2_A-20" value="稳定性" style="rounded=1;whiteSpace=wrap;html=1;" vertex="1" parent="1">
          <mxGeometry x="240" y="940" width="120" height="60" as="geometry" />
        </mxCell>
        <mxCell id="xid45OQ-tQ_rR6GMD2_A-21" value="欲望" style="rounded=1;whiteSpace=wrap;html=1;" vertex="1" parent="1">
          <mxGeometry x="410" y="940" width="120" height="60" as="geometry" />
        </mxCell>
        <mxCell id="xid45OQ-tQ_rR6GMD2_A-25" value="认知不足、不确定性才是根本。从和别人聊天和认知中发现，每个家庭都有问题。都没有解决对未来冲击的准备。都是一步走一步看。而自己欲望太高，也是对事物发展本质没有理解" style="ellipse;shape=cloud;whiteSpace=wrap;html=1;" vertex="1" parent="1">
          <mxGeometry x="540" y="960" width="200" height="170" as="geometry" />
        </mxCell>
        <mxCell id="xid45OQ-tQ_rR6GMD2_A-28" value="" style="edgeStyle=orthogonalEdgeStyle;rounded=0;orthogonalLoop=1;jettySize=auto;html=1;exitX=1;exitY=0.5;exitDx=0;exitDy=0;entryX=0;entryY=0.5;entryDx=0;entryDy=0;" edge="1" parent="1" source="xid45OQ-tQ_rR6GMD2_A-16" target="xid45OQ-tQ_rR6GMD2_A-27">
          <mxGeometry relative="1" as="geometry">
            <mxPoint x="450" y="740" as="sourcePoint" />
            <mxPoint x="630" y="585" as="targetPoint" />
          </mxGeometry>
        </mxCell>
        <mxCell id="xid45OQ-tQ_rR6GMD2_A-27" value="钱" style="shape=parallelogram;perimeter=parallelogramPerimeter;whiteSpace=wrap;html=1;fixedSize=1;" vertex="1" parent="1">
          <mxGeometry x="510" y="630" width="50" height="35" as="geometry" />
        </mxCell>
        <mxCell id="xid45OQ-tQ_rR6GMD2_A-30" style="edgeStyle=orthogonalEdgeStyle;rounded=0;orthogonalLoop=1;jettySize=auto;html=1;exitX=0.5;exitY=0;exitDx=0;exitDy=0;entryX=1;entryY=0.5;entryDx=0;entryDy=0;" edge="1" parent="1" source="xid45OQ-tQ_rR6GMD2_A-29" target="xid45OQ-tQ_rR6GMD2_A-5">
          <mxGeometry relative="1" as="geometry" />
        </mxCell>
        <mxCell id="xid45OQ-tQ_rR6GMD2_A-32" style="edgeStyle=orthogonalEdgeStyle;rounded=0;orthogonalLoop=1;jettySize=auto;html=1;exitX=0.5;exitY=0;exitDx=0;exitDy=0;entryX=0;entryY=0.5;entryDx=0;entryDy=0;" edge="1" parent="1" source="xid45OQ-tQ_rR6GMD2_A-29" target="xid45OQ-tQ_rR6GMD2_A-31">
          <mxGeometry relative="1" as="geometry" />
        </mxCell>
        <mxCell id="xid45OQ-tQ_rR6GMD2_A-33" style="edgeStyle=orthogonalEdgeStyle;rounded=0;orthogonalLoop=1;jettySize=auto;html=1;exitX=0;exitY=0.5;exitDx=0;exitDy=0;entryX=1;entryY=0.5;entryDx=0;entryDy=0;" edge="1" parent="1" source="xid45OQ-tQ_rR6GMD2_A-29" target="xid45OQ-tQ_rR6GMD2_A-3">
          <mxGeometry relative="1" as="geometry" />
        </mxCell>
        <mxCell id="xid45OQ-tQ_rR6GMD2_A-29" value="时间" style="ellipse;whiteSpace=wrap;html=1;aspect=fixed;" vertex="1" parent="1">
          <mxGeometry x="590" y="360" width="80" height="80" as="geometry" />
        </mxCell>
        <mxCell id="xid45OQ-tQ_rR6GMD2_A-31" value="父母的时间" style="rounded=1;whiteSpace=wrap;html=1;" vertex="1" parent="1">
          <mxGeometry x="690" y="70" width="120" height="60" as="geometry" />
        </mxCell>
        <mxCell id="xid45OQ-tQ_rR6GMD2_A-36" value="目前强力制约" style="text;html=1;strokeColor=none;fillColor=none;align=center;verticalAlign=middle;whiteSpace=wrap;rounded=0;" vertex="1" parent="1">
          <mxGeometry x="40" y="340" width="100" height="30" as="geometry" />
        </mxCell>
        <mxCell id="xid45OQ-tQ_rR6GMD2_A-39" style="edgeStyle=orthogonalEdgeStyle;rounded=0;orthogonalLoop=1;jettySize=auto;html=1;exitX=0.5;exitY=0;exitDx=0;exitDy=0;entryX=0;entryY=0.5;entryDx=0;entryDy=0;" edge="1" parent="1" source="xid45OQ-tQ_rR6GMD2_A-38" target="xid45OQ-tQ_rR6GMD2_A-14">
          <mxGeometry relative="1" as="geometry" />
        </mxCell>
        <mxCell id="xid45OQ-tQ_rR6GMD2_A-38" value="家庭幸福吗？" style="rounded=1;whiteSpace=wrap;html=1;" vertex="1" parent="1">
          <mxGeometry x="30" y="830" width="120" height="60" as="geometry" />
        </mxCell>
      </root>
    </mxGraphModel>
  </diagram>
</mxfile>
